<svg id="Layer_1" data-name="Layer 1" xmlns="http://www.w3.org/2000/svg" xmlns:xlink="http://www.w3.org/1999/xlink" viewBox="0 0 1370.66 228"><defs><style>.cls-1{fill:none;}.cls-1,.cls-3{stroke:#000;stroke-miterlimit:10;stroke-width:4px;}.cls-2{clip-path:url(#clip-path);}.cls-3{fill:#00dbca;}</style><clipPath id="clip-path" transform="translate(-35.91 -111)"><circle class="cls-1" cx="149.91" cy="225" r="100"/></clipPath></defs><title>sanatree-logo</title><g class="cls-2"><polygon class="cls-3" points="214 84 144 84 144 14 84 14 84 84 14 84 14 144 84 144 84 214 144 214 144 144 214 144 214 84"/></g><circle class="cls-1" cx="114" cy="114" r="100"/><path class="cls-3" d="M312,261.84c3.08,14.84,19.2,28.16,41.48,28.16,23.55,0,37.88-11.78,37.88-27.4,0-14.08-11.77-22.78-26.36-28.16l-26.88-9.21c-35.33-11.52-41.48-32.26-41.48-47.87,0-30.72,27.14-49.41,57.6-49.41,32,0,53.25,17.66,58.63,42.49l-23,6.92C385.44,159.44,372.65,151,354.21,151c-17.15,0-31.74,9.47-31.74,25.85,0,7.68,2.3,17.67,23.3,25.6l27.13,10.24c29.44,9.22,43.52,29.19,43.52,48.13,0,31.75-25.09,52-62.46,52-35.84,0-59.91-20-66-44.8Z" transform="translate(-35.91 -111)"/><path class="cls-3" d="M501.67,179.15c17.15,0,34,5.89,46.33,23.29V182h24.83V310H548V289.48c-12.29,17.41-29.18,23.3-46.33,23.3-38.4,0-63.49-30.21-63.49-66.82S463.27,179.15,501.67,179.15Zm3.07,22c-26.63,0-41.73,20.48-41.73,44.8s15.1,44.8,41.73,44.8c25.85,0,43.52-18.94,43.77-44.8C548.26,220.11,530.59,201.16,504.74,201.16Z" transform="translate(-35.91 -111)"/><path class="cls-3" d="M704.42,237.77c0-27.13-12.55-36.61-26.12-36.61-13.31,0-41.21,9-41.21,49.41V310H612.26V182h24.83v25.6c5.37-18.17,22-28.41,43-28.41,27.64,0,49.15,17.41,49.15,58.62V310H704.42Z" transform="translate(-35.91 -111)"/><path class="cls-3" d="M820.89,179.15c17.15,0,34.05,5.89,46.34,23.29V182h24.83V310H867.23V289.48c-12.29,17.41-29.19,23.3-46.34,23.3-38.4,0-63.48-30.21-63.48-66.82S782.49,179.15,820.89,179.15Zm3.07,22c-26.62,0-41.72,20.48-41.72,44.8s15.1,44.8,41.72,44.8c25.86,0,43.52-18.94,43.78-44.8C867.48,220.11,849.82,201.16,824,201.16Z" transform="translate(-35.91 -111)"/><path class="cls-3" d="M1036.7,130.77v21H977.05V310h-25.6V151.76H891.81v-21Z" transform="translate(-35.91 -111)"/><path class="cls-3" d="M1061.79,210.89c4.35-20.22,18.43-31.74,34.3-31.74a28.62,28.62,0,0,1,11.78,2.81v24.32A28.06,28.06,0,0,0,1094.3,203c-8.45,0-32.51,4.09-32.51,58.62V310H1037V182h24.83Z" transform="translate(-35.91 -111)"/><path class="cls-3" d="M1246.37,289c-16.39,18.43-37.12,23.81-56.07,23.81-44.54,0-72.19-29.95-72.19-66.3,0-37.38,29.18-67.33,68.86-67.33,33.8,0,65.28,21.76,65.28,69.12H1142.94c-.77,24.83,19.2,42.49,47.62,42.49,15.36,0,29.18-5.12,42-16.12Zm-101.12-59.9h81.4c-6.91-23.3-25.08-28.16-39.16-28.16C1172.38,200.91,1153.69,206.8,1145.25,229.07Z" transform="translate(-35.91 -111)"/><path class="cls-3" d="M1398.68,289c-16.38,18.43-37.12,23.81-56.06,23.81-44.54,0-72.19-29.95-72.19-66.3,0-37.38,29.18-67.33,68.86-67.33,33.79,0,65.28,21.76,65.28,69.12H1295.26c-.77,24.83,19.2,42.49,47.61,42.49,15.36,0,29.19-5.12,42-16.12Zm-101.12-59.9H1379c-6.91-23.3-25.09-28.16-39.17-28.16C1324.7,200.91,1306,206.8,1297.56,229.07Z" transform="translate(-35.91 -111)"/><path class="cls-3" d="M149.91,113a112,112,0,1,0,112,112A112,112,0,0,0,149.91,113Zm0,212a100,100,0,1,1,100-100A100,100,0,0,1,149.91,325Z" transform="translate(-35.91 -111)"/></svg>