<svg id="Layer_1" data-name="Layer 1" xmlns="http://www.w3.org/2000/svg" viewBox="0 0 301 382.59"><defs><style>.cls-1,.cls-2{stroke:#000;stroke-miterlimit:10;}.cls-2{fill:#fff;}</style></defs><title>Lock</title><path class="cls-1" d="M240,56.8c-66.27,0-120,62.43-120,139.44s53.73,139.45,120,139.45,120-62.43,120-139.45S306.27,56.8,240,56.8Zm0,240.12c-47.85,0-86.64-45.07-86.64-100.68S192.15,95.56,240,95.56s86.64,45.08,86.64,100.68S287.85,296.92,240,296.92Z" transform="translate(-89.5 -56.3)"/><rect class="cls-1" x="0.5" y="137.89" width="300" height="244.2"/><path class="cls-2" d="M283.3,378.71l-27.1-67a25,25,0,1,0-32.4,0l-27.1,67Z" transform="translate(-89.5 -56.3)"/></svg>